<?xml version="1.0" encoding="UTF-8" standalone="no"?>
<!-- Created with Inkscape (http://www.inkscape.org/) -->
<svg xmlns:dc="http://purl.org/dc/elements/1.1/" xmlns:cc="http://creativecommons.org/ns#" xmlns:rdf="http://www.w3.org/1999/02/22-rdf-syntax-ns#" xmlns:svg="http://www.w3.org/2000/svg" xmlns="http://www.w3.org/2000/svg" xmlns:xlink="http://www.w3.org/1999/xlink" xmlns:sodipodi="http://sodipodi.sourceforge.net/DTD/sodipodi-0.dtd" xmlns:inkscape="http://www.inkscape.org/namespaces/inkscape" width="247.12083" height="205.01709" id="svg2" sodipodi:version="0.32" inkscape:version="0.48.2 r9819" sodipodi:docname="revised rg1024_Key_tag.svg" inkscape:output_extension="org.inkscape.output.svg.inkscape" version="1.0" inkscape:export-filename="/home/roger/mis-dibujos/open/key_tag.png" inkscape:export-xdpi="90" inkscape:export-ydpi="90">
  <defs id="defs4">
    <linearGradient inkscape:collect="always" id="linearGradient4080">
      <stop style="stop-color:#352929;stop-opacity:1;" offset="0" id="stop4082"/>
      <stop style="stop-color:#352929;stop-opacity:0;" offset="1" id="stop4084"/>
    </linearGradient>
    <linearGradient id="linearGradient4062">
      <stop style="stop-color:#ececec;stop-opacity:1;" offset="0" id="stop4064"/>
      <stop style="stop-color:#ececec;stop-opacity:0;" offset="1" id="stop4066"/>
    </linearGradient>
    <linearGradient inkscape:collect="always" id="linearGradient3298">
      <stop style="stop-color:#000000;stop-opacity:1;" offset="0" id="stop3300"/>
      <stop style="stop-color:#000000;stop-opacity:0;" offset="1" id="stop3302"/>
    </linearGradient>
    <linearGradient id="linearGradient3248">
      <stop style="stop-color:#92857d;stop-opacity:1;" offset="0" id="stop3250"/>
      <stop style="stop-color:#ebedeb;stop-opacity:1;" offset="1" id="stop3252"/>
    </linearGradient>
    <linearGradient id="linearGradient3222">
      <stop style="stop-color:#000000;stop-opacity:0.29411766;" offset="0" id="stop3224"/>
      <stop style="stop-color:#ffffff;stop-opacity:0.29411766;" offset="1" id="stop3226"/>
    </linearGradient>
    <linearGradient id="linearGradient3204">
      <stop style="stop-color:#ffffff;stop-opacity:1;" offset="0" id="stop3206"/>
      <stop style="stop-color:#ffffff;stop-opacity:0;" offset="1" id="stop3208"/>
    </linearGradient>
    <linearGradient inkscape:collect="always" id="linearGradient3196">
      <stop style="stop-color:#000000;stop-opacity:1;" offset="0" id="stop3198"/>
      <stop style="stop-color:#000000;stop-opacity:0;" offset="1" id="stop3200"/>
    </linearGradient>
    <linearGradient inkscape:collect="always" id="linearGradient3476">
      <stop style="stop-color:#ffffff;stop-opacity:1;" offset="0" id="stop3478"/>
      <stop style="stop-color:#ffffff;stop-opacity:0;" offset="1" id="stop3480"/>
    </linearGradient>
    <linearGradient inkscape:collect="always" id="linearGradient3461">
      <stop style="stop-color:#eeeeec;stop-opacity:0.73239437" offset="0" id="stop3463"/>
      <stop style="stop-color:#eeeeec;stop-opacity:0;" offset="1" id="stop3465"/>
    </linearGradient>
    <linearGradient id="linearGradient3446">
      <stop style="stop-color:#2e3436;stop-opacity:0.49006623;" offset="0" id="stop3448"/>
      <stop style="stop-color:#2e3436;stop-opacity:0;" offset="1" id="stop3450"/>
    </linearGradient>
    <linearGradient id="linearGradient3418">
      <stop style="stop-color:#ffffff;stop-opacity:1;" offset="0" id="stop3420"/>
      <stop style="stop-color:#ffffff;stop-opacity:0;" offset="1" id="stop3422"/>
    </linearGradient>
    <inkscape:perspective sodipodi:type="inkscape:persp3d" inkscape:vp_x="0 : 526.18109 : 1" inkscape:vp_y="0 : 1000 : 0" inkscape:vp_z="744.09448 : 526.18109 : 1" inkscape:persp3d-origin="372.04724 : 350.78739 : 1" id="perspective10"/>
    <inkscape:perspective id="perspective2620" inkscape:persp3d-origin="372.04724 : 350.78739 : 1" inkscape:vp_z="744.09448 : 526.18109 : 1" inkscape:vp_y="0 : 1000 : 0" inkscape:vp_x="0 : 526.18109 : 1" sodipodi:type="inkscape:persp3d"/>
    <linearGradient inkscape:collect="always" xlink:href="#linearGradient3418" id="linearGradient3424" x1="390.54507" y1="675.73193" x2="374.08527" y2="675.73193" gradientUnits="userSpaceOnUse" gradientTransform="translate(138.06066,-2.5606602)"/>
    <radialGradient inkscape:collect="always" xlink:href="#linearGradient3248" id="radialGradient3282" gradientUnits="userSpaceOnUse" gradientTransform="matrix(0.1257111,-9.2806661e-8,1.3101233e-7,0.1782947,431.96907,436.64723)" spreadMethod="reflect" cx="498.12442" cy="542.14819" fx="498.12442" fy="542.14819" r="33.96875"/>
    <radialGradient inkscape:collect="always" xlink:href="#linearGradient3248" id="radialGradient3284" gradientUnits="userSpaceOnUse" gradientTransform="matrix(0.1257111,-9.2806661e-8,1.3101233e-7,0.1782947,427.72643,436.29368)" spreadMethod="reflect" cx="498.12442" cy="542.14819" fx="498.12442" fy="542.14819" r="33.96875"/>
    <filter inkscape:collect="always" id="filter3408" color-interpolation-filters="sRGB">
      <feGaussianBlur inkscape:collect="always" stdDeviation="4.1410521" id="feGaussianBlur3410"/>
    </filter>
    <linearGradient inkscape:collect="always" xlink:href="#linearGradient3222" id="linearGradient3426" gradientUnits="userSpaceOnUse" x1="397.75" y1="671.48718" x2="411" y2="671.48718"/>
    <radialGradient inkscape:collect="always" xlink:href="#linearGradient3248" id="radialGradient3428" gradientUnits="userSpaceOnUse" gradientTransform="matrix(0.105918,0.06771017,-0.09603261,0.1502223,318.2011,-271.76854)" spreadMethod="reflect" cx="498.12442" cy="542.14819" fx="498.12442" fy="542.14819" r="33.96875"/>
    <radialGradient inkscape:collect="always" xlink:href="#linearGradient3248" id="radialGradient3430" gradientUnits="userSpaceOnUse" gradientTransform="matrix(0.105918,0.06771017,-0.09603261,0.1502223,536.03564,318.55428)" spreadMethod="reflect" cx="498.12442" cy="542.14819" fx="498.12442" fy="542.14819" r="33.96875"/>
    <linearGradient inkscape:collect="always" xlink:href="#linearGradient3298" id="linearGradient3432" gradientUnits="userSpaceOnUse" x1="400" y1="631.48718" x2="403.375" y2="626.98718" gradientTransform="translate(105,-201)"/>
    <radialGradient inkscape:collect="always" xlink:href="#linearGradient3248" id="radialGradient3434" gradientUnits="userSpaceOnUse" gradientTransform="matrix(0.105918,0.06771017,-0.09603261,0.1502223,536.03564,318.55428)" spreadMethod="reflect" cx="498.12442" cy="542.14819" fx="498.12442" fy="542.14819" r="33.96875"/>
    <linearGradient inkscape:collect="always" xlink:href="#linearGradient3461" id="linearGradient3984" gradientUnits="userSpaceOnUse" x1="224.71875" y1="673.85938" x2="241.15625" y2="673.85938"/>
    <linearGradient inkscape:collect="always" xlink:href="#linearGradient3476" id="linearGradient3986" gradientUnits="userSpaceOnUse" gradientTransform="translate(0,-0.5)" x1="426" y1="672.40094" x2="399.15915" y2="672.40094"/>
    <linearGradient inkscape:collect="always" xlink:href="#linearGradient3204" id="linearGradient3988" gradientUnits="userSpaceOnUse" x1="384.89655" y1="664.67468" x2="366.89655" y2="665.17468"/>
    <linearGradient inkscape:collect="always" xlink:href="#linearGradient3196" id="linearGradient3990" gradientUnits="userSpaceOnUse" x1="218.875" y1="673.67468" x2="234.63577" y2="673.67468"/>
    <linearGradient inkscape:collect="always" xlink:href="#linearGradient3222" id="linearGradient3992" gradientUnits="userSpaceOnUse" x1="397.75" y1="671.48718" x2="411" y2="671.48718"/>
    <radialGradient inkscape:collect="always" xlink:href="#linearGradient3248" id="radialGradient3994" gradientUnits="userSpaceOnUse" gradientTransform="matrix(0.105918,0.06771017,-0.09603261,0.1502223,434.41985,522.13732)" spreadMethod="reflect" cx="498.12442" cy="542.14819" fx="498.12442" fy="542.14819" r="33.96875"/>
    <radialGradient inkscape:collect="always" xlink:href="#linearGradient3248" id="radialGradient3996" gradientUnits="userSpaceOnUse" gradientTransform="matrix(0.105918,0.06771017,-0.09603261,0.1502223,431.03564,519.55428)" spreadMethod="reflect" cx="498.12442" cy="542.14819" fx="498.12442" fy="542.14819" r="33.96875"/>
    <linearGradient inkscape:collect="always" xlink:href="#linearGradient3298" id="linearGradient3998" gradientUnits="userSpaceOnUse" x1="400" y1="631.48718" x2="403.375" y2="626.98718"/>
    <linearGradient inkscape:collect="always" xlink:href="#linearGradient3298" id="linearGradient4036" gradientUnits="userSpaceOnUse" x1="400" y1="631.48718" x2="403.375" y2="626.98718" gradientTransform="matrix(0.96592583,-0.25881905,0.25881905,0.96592583,-157.57745,92.44522)"/>
    <radialGradient inkscape:collect="always" xlink:href="#linearGradient3248" id="radialGradient4039" gradientUnits="userSpaceOnUse" gradientTransform="matrix(0.11983361,0.03798941,-0.05387999,0.16995867,393.24155,482.73588)" spreadMethod="reflect" cx="498.12442" cy="542.14819" fx="498.12442" fy="542.14819" r="33.96875"/>
    <radialGradient inkscape:collect="always" xlink:href="#linearGradient3248" id="radialGradient4042" gradientUnits="userSpaceOnUse" gradientTransform="matrix(0.11983361,0.03798941,-0.05387999,0.16995867,397.17899,484.35501)" spreadMethod="reflect" cx="498.12442" cy="542.14819" fx="498.12442" fy="542.14819" r="33.96875"/>
    <linearGradient inkscape:collect="always" xlink:href="#linearGradient3196" id="linearGradient4046" gradientUnits="userSpaceOnUse" x1="218.875" y1="673.67468" x2="234.63577" y2="673.67468" gradientTransform="matrix(0.96592583,-0.25881905,0.25881905,0.96592583,-157.57745,92.44522)"/>
    <linearGradient inkscape:collect="always" xlink:href="#linearGradient3204" id="linearGradient4049" gradientUnits="userSpaceOnUse" x1="384.89655" y1="664.67468" x2="366.89655" y2="665.17468" gradientTransform="matrix(0.96592583,-0.25881905,0.25881905,0.96592583,-157.57745,92.44522)"/>
    <linearGradient inkscape:collect="always" xlink:href="#linearGradient3476" id="linearGradient4052" gradientUnits="userSpaceOnUse" gradientTransform="matrix(0.96592583,-0.25881905,0.25881905,0.96592583,-157.70686,91.962257)" x1="426" y1="672.40094" x2="399.15915" y2="672.40094"/>
    <linearGradient inkscape:collect="always" xlink:href="#linearGradient3461" id="linearGradient4056" gradientUnits="userSpaceOnUse" x1="224.71875" y1="673.85938" x2="241.15625" y2="673.85938" gradientTransform="matrix(0.96592583,-0.25881905,0.25881905,0.96592583,-157.57745,92.44522)"/>
    <linearGradient inkscape:collect="always" xlink:href="#linearGradient4080" id="linearGradient4086" x1="51.974419" y1="721.75281" x2="208.93887" y2="721.75281" gradientUnits="userSpaceOnUse"/>
    <linearGradient inkscape:collect="always" xlink:href="#linearGradient4062" id="linearGradient4088" x1="72.746048" y1="725.35797" x2="326.44513" y2="712.90564" gradientUnits="userSpaceOnUse"/>
    <linearGradient inkscape:collect="always" xlink:href="#linearGradient3222" id="linearGradient5204" gradientUnits="userSpaceOnUse" x1="397.75" y1="671.48718" x2="411" y2="671.48718"/>
  </defs>
  <sodipodi:namedview id="base" pagecolor="#ffffff" bordercolor="#666666" borderopacity="1.0" inkscape:pageopacity="0.0" inkscape:pageshadow="2" inkscape:zoom="2.8284271" inkscape:cx="137.3998" inkscape:cy="101.39489" inkscape:document-units="px" inkscape:current-layer="layer1" showgrid="false" inkscape:window-width="1920" inkscape:window-height="1027" inkscape:window-x="0" inkscape:window-y="24" inkscape:window-maximized="1" fit-margin-top="0" fit-margin-left="0" fit-margin-right="0" fit-margin-bottom="0"/>
  <g inkscape:label="Capa 1" inkscape:groupmode="layer" id="layer1" transform="translate(-215.38278,-550.16343)">
    <path inkscape:connector-curvature="0" style="fill:#888a85;fill-opacity:1;fill-rule:nonzero;stroke:none;filter:url(#filter3408)" d="m 247.15625,618.4375 c -11.87143,0 -21.4375,9.56607 -21.4375,21.4375 l 0,80 c 0,11.87146 9.56607,21.40625 21.4375,21.40625 l 133.5625,0 c 5.62047,-0.21052 12.56393,-5.72839 19.625,-13.4375 0.0537,-0.0495 0.10154,-0.1076 0.15625,-0.15625 15.07419,-13.40306 33.92879,-32.77329 33.65625,-47.8125 0.0685,-13.90291 -18.78086,-33.9996 -33.4375,-47.625 -7.18353,-7.91405 -14.28467,-13.59843 -20,-13.8125 l -133.5625,0 z M 412.75,670.28125 c 4.31647,-10e-6 7.8125,3.52729 7.8125,7.84375 10e-6,4.31648 -3.49604,7.8125 -7.8125,7.8125 -4.31645,-10e-6 -7.8125,-3.49604 -7.8125,-7.8125 10e-6,-4.31644 3.49604,-7.84375 7.8125,-7.84375 z" id="path3958" transform="matrix(0.96592583,-0.25881905,0.25881905,0.96592583,-157.57745,92.44522)"/>
    <path inkscape:connector-curvature="0" id="path3960" d="m 235.32098,621.21036 c -11.46692,3.07255 -18.23115,14.78855 -15.1586,26.25547 l 20.70552,77.27407 c 3.07256,11.46695 14.78046,18.20096 26.24738,15.12841 l 129.01147,-34.56852 c 5.37447,-1.65803 10.65321,-8.78498 15.47842,-18.05895 0.0391,-0.0617 0.0702,-0.13021 0.11048,-0.19137 11.09158,-16.84785 24.29034,-40.43798 20.13466,-54.8942 -3.53217,-13.44691 -26.94066,-27.98025 -44.6244,-37.34796 -8.98707,-5.78515 -17.31747,-9.43793 -22.89346,-8.16547 l -129.01147,34.56852 z m 173.36943,7.2184 c 4.16939,-1.11719 8.45923,1.38508 9.57641,5.55446 1.1172,4.16939 -1.35489,8.45113 -5.52427,9.56832 -4.16938,1.11717 -8.45114,-1.35489 -9.56832,-5.52427 -1.11717,-4.16937 1.3468,-8.48133 5.51618,-9.59851 z" style="fill:#352929;fill-opacity:1;fill-rule:nonzero;stroke:none" inkscape:export-filename="/home/snowdrop/Bilder/key.png" inkscape:export-xdpi="74.193604" inkscape:export-ydpi="74.193604"/>
    <rect style="fill:url(#linearGradient4086);fill-opacity:1;fill-rule:nonzero;stroke:none" id="rect3962" width="156.96446" height="105.25887" x="51.974419" y="669.12335" ry="14.616955" transform="matrix(0.96592583,-0.25881905,0.25881905,0.96592583,0,0)" inkscape:export-filename="/home/snowdrop/Bilder/key.png" inkscape:export-xdpi="74.193604" inkscape:export-ydpi="74.193604"/>
    <rect ry="2.7322428" y="681.37335" x="62.474419" height="83.5" width="135.96446" id="rect3964" style="fill:url(#linearGradient4088);fill-opacity:1;fill-rule:nonzero;stroke:none" transform="matrix(0.96592583,-0.25881905,0.25881905,0.96592583,0,0)" inkscape:export-filename="/home/snowdrop/Bilder/key.png" inkscape:export-xdpi="74.193604" inkscape:export-ydpi="74.193604"/>
    <path inkscape:connector-curvature="0" id="path3966" d="m 235.32098,621.21036 c -11.46692,3.07255 -18.23115,14.78855 -15.1586,26.25547 l 20.70552,77.27407 c 3.07256,11.46695 14.78046,18.20096 26.24738,15.12841 l 3.86371,-1.03527 c -11.46692,3.07255 -23.17482,-3.66147 -26.24738,-15.12842 l -20.70553,-77.27407 c -3.07255,-11.46692 3.69168,-23.18291 15.1586,-26.25547 l -3.8637,1.03528 z" style="fill:url(#linearGradient4056);fill-opacity:1;fill-rule:nonzero;stroke:none" inkscape:export-filename="/home/snowdrop/Bilder/key.png" inkscape:export-xdpi="74.193604" inkscape:export-ydpi="74.193604"/>
    <path inkscape:connector-curvature="0" id="path3968" d="m 387.58198,604.70879 18.89379,70.51258 c 0.7965,-1.28784 1.58187,-2.68271 2.34821,-4.15561 0.027,-0.0426 0.0385,-0.0726 0.0663,-0.11476 7.6487,-11.61818 16.7604,-27.88588 13.89465,-37.85482 -2.43571,-9.27293 -18.58263,-19.29569 -30.77726,-25.75561 -1.51268,-0.97373 -2.98799,-1.86119 -4.42569,-2.63172 z m 21.10843,23.71997 c 4.16939,-1.11719 8.45923,1.38508 9.57641,5.55446 1.1172,4.16939 -1.35489,8.45113 -5.52427,9.56832 -4.16938,1.11717 -8.45114,-1.35489 -9.56832,-5.52427 -1.11717,-4.16937 1.3468,-8.48133 5.51618,-9.59851 z" style="fill:#241c1c;fill-opacity:1;fill-rule:nonzero;stroke:none" inkscape:export-filename="/home/snowdrop/Bilder/key.png" inkscape:export-xdpi="74.193604" inkscape:export-ydpi="74.193604"/>
    <path inkscape:connector-curvature="0" style="fill:none;stroke:url(#linearGradient4052);stroke-width:2;stroke-linecap:round;stroke-linejoin:bevel;stroke-miterlimit:4;stroke-opacity:1;stroke-dasharray:none;stroke-dashoffset:0" d="m 387.45257,604.22582 18.89103,70.50227 c 0.7965,-1.28784 1.5844,-2.65966 2.35074,-4.13256 0.027,-0.0426 0.0484,-0.0898 0.0762,-0.13196 7.6487,-11.61819 16.7505,-27.88583 13.88475,-37.85477 -2.43571,-9.27293 -18.57814,-19.29504 -30.77276,-25.75496 -1.51269,-0.97375 -2.99225,-1.85748 -4.42995,-2.62802 z" id="path3970" inkscape:export-filename="/home/snowdrop/Bilder/key.png" inkscape:export-xdpi="74.193604" inkscape:export-ydpi="74.193604"/>
    <path inkscape:connector-curvature="0" sodipodi:nodetypes="cccc" id="path3972" d="m 364.34609,595.74829 c 0,0 6.20972,-1.1514 12.11804,6.5881 1.18585,2.03729 21.88551,79.33181 22.07067,80.91997 1.92869,8.06568 -6.9977,13.00425 -6.9977,13.00425" style="fill:none;stroke:url(#linearGradient4049);stroke-width:1px;stroke-linecap:butt;stroke-linejoin:miter;stroke-opacity:1" inkscape:export-filename="/home/snowdrop/Bilder/key.png" inkscape:export-xdpi="74.193604" inkscape:export-ydpi="74.193604"/>
    <path inkscape:connector-curvature="0" style="fill:none;stroke:url(#linearGradient4046);stroke-width:1px;stroke-linecap:butt;stroke-linejoin:miter;stroke-opacity:1" d="m 234.80342,629.9415 c 0,0 -5.95348,2.10772 -7.20048,11.76449 -0.008,2.35727 20.7125,79.64612 21.34623,81.11408 2.36255,7.94943 12.17005,9.68 12.17005,9.68" id="path3974" sodipodi:nodetypes="cccc" inkscape:export-filename="/home/snowdrop/Bilder/key.png" inkscape:export-xdpi="74.193604" inkscape:export-ydpi="74.193604"/>
    <path sodipodi:type="arc" style="fill:none;stroke:url(#linearGradient5204);stroke-width:2;stroke-linecap:round;stroke-linejoin:bevel;stroke-miterlimit:4;stroke-opacity:1;stroke-dasharray:none;stroke-dashoffset:0" id="path3976" sodipodi:cx="404.375" sodipodi:cy="671.48718" sodipodi:rx="6.625" sodipodi:ry="6.625" d="m 411,671.48718 c 0,3.65889 -2.96611,6.625 -6.625,6.625 -3.65889,0 -6.625,-2.96611 -6.625,-6.625 0,-3.65888 2.96611,-6.625 6.625,-6.625 3.65889,0 6.625,2.96612 6.625,6.625 z" transform="matrix(1.2984577,-0.34792069,0.34792069,1.2984577,-348.34178,-95.632646)" inkscape:export-filename="/home/snowdrop/Bilder/key.png" inkscape:export-xdpi="74.193604" inkscape:export-ydpi="74.193604"/>
    <path inkscape:connector-curvature="0" id="path3978" d="m 425.17079,552.77291 c -12.68601,3.46775 -24.57826,15.61389 -29.8904,32.37045 -1.39336,4.39521 -2.24572,8.80433 -2.57707,13.08149 l 5.0138,2.89472 c 0.25453,-4.62786 1.148,-9.4704 2.69232,-14.34176 6.57984,-20.75534 22.60955,-34.29053 38.2419,-29.33479 15.63237,4.95578 22.85835,25.87019 16.27851,46.62554 -6.57983,20.75532 -24.52264,33.67081 -40.15499,28.71507 -2.63747,-0.83613 -4.97944,-2.11012 -7.02177,-3.74784 l -2.60502,1.50683 -0.70769,0.73961 -0.1541,0.75304 -0.0523,0.0463 c 2.65073,2.33312 5.6818,4.11737 9.09287,5.19873 17.29616,5.48322 39.33315,-8.29407 46.72394,-31.60755 7.39082,-23.31345 -2.6855,-47.23522 -19.98165,-52.71845 -4.86455,-1.54215 -9.93426,-1.53839 -14.89836,-0.18146 z" style="fill:url(#radialGradient4042);fill-opacity:1;fill-rule:nonzero;stroke:none" inkscape:export-filename="/home/snowdrop/Bilder/key.png" inkscape:export-xdpi="74.193604" inkscape:export-ydpi="74.193604"/>
    <path sodipodi:nodetypes="ssccsssscccccssss" inkscape:connector-curvature="0" id="path3980" d="m 421.21738,551.17933 c -12.686,3.46774 -24.54808,15.6058 -29.86021,32.36236 -1.32804,4.18914 -2.15801,8.36436 -2.51945,12.45136 l 4.97552,2.87262 c 0.29903,-4.43158 1.1622,-9.06679 2.6347,-13.71162 6.57981,-20.75539 22.61764,-34.26037 38.25,-29.30461 15.63233,4.95575 22.85026,25.84 16.27041,46.59535 -6.57981,20.75533 -24.52264,33.67082 -40.15499,28.71507 -1.37821,-0.43692 -2.65425,-0.98292 -3.87094,-1.64803 l -1.79435,1.03079 -0.70769,0.73961 -0.1541,0.75304 -0.65916,0.92073 c 1.79163,1.13133 3.714,2.06884 5.77652,2.7227 17.29619,5.48323 39.30296,-8.28598 46.69376,-31.59946 7.39081,-23.31349 -2.66341,-47.27351 -19.95956,-52.75673 -4.86455,-1.54215 -9.95636,-1.50012 -14.92046,-0.14318 z" style="fill:url(#radialGradient4039);fill-opacity:1;fill-rule:nonzero;stroke:none" inkscape:export-filename="/home/snowdrop/Bilder/key.png" inkscape:export-xdpi="74.193604" inkscape:export-ydpi="74.193604"/>
    <path inkscape:connector-curvature="0" id="path3982" d="m 388.90444,595.63837 c 0.70943,0.71578 9.2503,5.54478 9.2503,5.54478 l -0.0954,-5.66847 -8.43514,-3.95146 -0.7198,4.07515 z" style="opacity:0.35915491;fill:url(#linearGradient4036);fill-opacity:1;fill-rule:evenodd;stroke:none" inkscape:export-filename="/home/snowdrop/Bilder/key.png" inkscape:export-xdpi="74.193604" inkscape:export-ydpi="74.193604"/>
  </g>
  <metadata>
    <rdf:RDF>
      <cc:Work>
        <dc:format>image/svg+xml</dc:format>
        <dc:type rdf:resource="http://purl.org/dc/dcmitype/StillImage"/>
        <cc:license rdf:resource="http://creativecommons.org/licenses/publicdomain/"/>
        <dc:publisher>
          <cc:Agent rdf:about="http://openclipart.org/">
            <dc:title>Open Clip Art Library</dc:title>
          </cc:Agent>
        </dc:publisher>
        <dc:title>Brown Key Tag</dc:title>
        <dc:date>2011-11-01T15:49:55</dc:date>
        <dc:description/>
        <dc:source>http://openclipart.org/detail/165536/brown-key-tag-by-snowdrop</dc:source>
        <dc:creator>
          <cc:Agent>
            <dc:title>snowdrop</dc:title>
          </cc:Agent>
        </dc:creator>
        <dc:subject>
          <rdf:Bag>
            <rdf:li>clip art</rdf:li>
            <rdf:li>clipart</rdf:li>
            <rdf:li>key</rdf:li>
            <rdf:li>key tag</rdf:li>
            <rdf:li>tag</rdf:li>
          </rdf:Bag>
        </dc:subject>
      </cc:Work>
      <cc:License rdf:about="http://creativecommons.org/licenses/publicdomain/">
        <cc:permits rdf:resource="http://creativecommons.org/ns#Reproduction"/>
        <cc:permits rdf:resource="http://creativecommons.org/ns#Distribution"/>
        <cc:permits rdf:resource="http://creativecommons.org/ns#DerivativeWorks"/>
      </cc:License>
    </rdf:RDF>
  </metadata>
</svg>
